:FULLY-SPECIFIED
:FORCE-ALL-JOINTS-BE-3DOF
:DEGREES
816
root -4.50688 14.673 -40.19 33.4265 -76.8343 -24.5361
lfemur -69.4362 19.9843 -21.1374
ltibia 85.2019 -0 0
lfoot -7.03428 8.43981 -0.0770224
ltoes -15.2831 0 0
rfemur -31.0622 -9.08031 21.4974
rtibia 71.5221 -0 0
rfoot -32.2433 -26.3257 0.0650624
rtoes -22.6218 0 0
lowerback 17.864 0.64602 4.2742
upperback 0.203588 1.81008 1.49621
thorax -9.76555 0.673208 -1.2567
lowerneck -2.33741 12.4258 4.83052
upperneck -1.21775 16.5375 -8.39005
head 1.23539 8.22314 -3.06093
lclavicle 4.22417e-15 7.85199e-15 0
lhumerus 97.0796 -33.0787 28.8057
lradius 92.2988 -0 0
lwrist 10.1286 0 0
lhand -11.2617 24.1673 -0.126693
lfingers 7.12502 -0 0
lthumb 14.7646 53.53 -0.134133
rclavicle 4.22417e-15 7.85199e-15 0
rhumerus 18.113 38.9427 -61.0639
rradius 68.073 -0 0
rwrist -12.6097 0 0
rhand -10.8927 -39.7741 0.077216
rfingers 7.12502 -0 0
rthumb 15.107 -69.0249 0.136582
817
root -4.33782 14.6943 -40.2403 31.2721 -75.9609 -22.2523
lfemur -69.629 20.0939 -21.6856
ltibia 85.6722 -0 0
lfoot -7.22272 8.69942 -0.0633242
ltoes -15.3155 0 0
rfemur -31.6873 -9.22413 21.9123
rtibia 71.609 -0 0
rfoot -32.4284 -26.549 0.0534921
rtoes -22.497 0 0
lowerback 17.9642 0.594503 4.36452
upperback 0.225784 1.76143 1.43344
thorax -9.79187 0.642753 -1.36658
lowerneck -2.3073 12.5542 4.90962
upperneck -1.29905 16.7057 -8.58171
head 1.23602 8.30868 -3.12803
lclavicle 4.22417e-15 7.85199e-15 0
lhumerus 98.9293 -33.5915 26.2805
lradius 94.5062 -0 0
lwrist 11.9158 0 0
lhand -10.8018 23.9929 -0.10415
lfingers 7.12502 -0 0
lthumb 15.2083 53.3386 -0.110266
rclavicle 4.22417e-15 7.85199e-15 0
rhumerus 20.4479 39.1866 -60.1506
rradius 67.3804 -0 0
rwrist -11.7686 0 0
rhand -11.4613 -39.8599 0.0634716
rfingers 7.12502 -0 0
rthumb 14.5623 -69.1834 0.112271
818
root -4.16876 14.7155 -40.2906 29.3791 -75.0691 -20.2297
lfemur -69.823 20.2018 -22.2345
ltibia 86.1424 -0 0
lfoot -7.4111 8.95898 -0.0487724
ltoes -15.3479 0 0
rfemur -32.3137 -9.36347 22.329
rtibia 71.696 -0 0
rfoot -32.6135 -26.7723 0.0412004
rtoes -22.3723 0 0
lowerback 18.0644 0.542827 4.45476
upperback 0.248033 1.7128 1.37065
thorax -9.81814 0.612248 -1.47645
lowerneck -2.27699 12.6826 4.98882
upperneck -1.38101 16.8737 -8.77379
head 1.23655 8.39422 -3.19514
lclavicle 4.22417e-15 7.85199e-15 0
lhumerus 100.815 -34.0353 23.7226
lradius 96.7137 -0 0
lwrist 13.7031 0 0
lhand -10.3419 23.8187 -0.0802065
lfingers 7.12502 -0 0
lthumb 15.652 53.1474 -0.0849173
rclavicle 4.22417e-15 7.85199e-15 0
rhumerus 22.7953 39.4013 -59.2222
rradius 66.6878 -0 0
rwrist -10.9276 0 0
rhand -12.0298 -39.9456 0.0488763
rfingers 7.12502 -0 0
rthumb 14.0177 -69.3416 0.086455
819
root -3.99969 14.7367 -40.3409 27.7074 -74.162 -18.4281
lfemur -70.0182 20.3079 -22.7841
ltibia 86.6127 -0 0
lfoot -7.59941 9.2185 -0.0333675
ltoes -15.3803 0 0
rfemur -32.9413 -9.4983 22.7473
rtibia 71.7829 -0 0
rfoot -32.7985 -26.9955 0.0281876
rtoes -22.2475 0 0
lowerback 18.1645 0.490994 4.5449
upperback 0.270335 1.6642 1.30784
thorax -9.84435 0.581693 -1.58631
lowerneck -2.24649 12.8109 5.06814
upperneck -1.46363 17.0414 -8.9663
head 1.23697 8.47975 -3.26226
lclavicle 4.22417e-15 7.85199e-15 0
lhumerus 102.732 -34.4084 21.136
lradius 98.9211 -0 0
lwrist 15.4904 0 0
lhand -9.88206 23.6447 -0.0548659
lfingers 7.12502 -0 0
lthumb 16.0955 52.9563 -0.0580888
rclavicle 4.22417e-15 7.85199e-15 0
rhumerus 25.1536 39.5864 -58.2805
rradius 65.9952 -0 0
rwrist -10.0866 0 0
rhand -12.5983 -40.0311 0.0334315
rfingers 7.12502 -0 0
rthumb 13.4732 -69.4996 0.059136
820
root -3.83063 14.758 -40.3912 26.2242 -73.2421 -16.8147
lfemur -70.2147 20.4122 -23.3345
ltibia 87.0829 -0 0
lfoot -7.78765 9.47796 -0.0171098
ltoes -15.4127 0 0
rfemur -33.5702 -9.6286 23.1673
rtibia 71.8698 -0 0
rfoot -32.9835 -27.2187 0.014454
rtoes -22.1228 0 0
lowerback 18.2646 0.439003 4.63495
upperback 0.292689 1.61562 1.24501
thorax -9.87051 0.551088 -1.69615
lowerneck -2.21578 12.9392 5.14757
upperneck -1.54692 17.2089 -9.15923
head 1.2373 8.56529 -3.3294
lclavicle 4.22417e-15 7.85199e-15 0
lhumerus 104.675 -34.7091 18.5251
lradius 101.129 -0 0
lwrist 17.2777 0 0
lhand -9.42232 23.4709 -0.0281298
lfingers 7.12502 -0 0
lthumb 16.539 52.7655 -0.0297824
rclavicle 4.22417e-15 7.85199e-15 0
rhumerus 27.5213 39.7413 -57.3274
rradius 65.3026 -0 0
rwrist -9.24557 0 0
rhand -13.1668 -40.1165 0.0171389
rfingers 7.12502 -0 0
rthumb 12.9288 -69.6573 0.0303167
821
root -3.66157 14.7792 -40.4415 384.902 -72.3114 344.638
lfemur -70.4123 20.5148 -23.8857
ltibia 87.5532 0 0
lfoot -7.97581 9.73737 0
ltoes -15.4451 0 0
rfemur -34.2003 -9.75434 23.5888
rtibia 71.9567 0 0
rfoot -33.1684 -27.4419 0
rtoes -21.998 0 0
lowerback 18.3645 0.386855 4.72491
upperback 0.315096 1.56706 1.18217
thorax -9.8966 0.520432 -1.80598
lowerneck -2.18488 13.0674 5.22711
upperneck -1.63087 17.3761 -9.35259
head 1.23752 8.65083 -3.39655
lclavicle 4.22417e-15 7.85199e-15 0
lhumerus 106.639 -34.9364 15.8949
lradius 103.336 0 0
lwrist 19.065 0 0
lhand -8.96267 23.2973 0
lfingers 7.12502 0 0
lthumb 16.9824 52.5749 0
rclavicle 4.22417e-15 7.85199e-15 0
rhumerus 29.8969 39.8657 -56.3648
rradius 64.61 0 0
rwrist -8.40454 0 0
rhand -13.7352 -40.2017 0
rfingers 7.12502 0 0
rthumb 12.3844 -69.8148 0
